PathFileType	4	(X/Y/Z)	C:\Users\86182\Documents\cortex\Trimmed_M1_L6.trc
DataRate	CameraRate	NumFrames	NumMarkers	Units	OrigDataRate	OrigDataStartFrame	OrigNumFrames
100.00	100.00	       58	2	mm	100.00	1	       901
Frame#	Time	gripper			box			
		X1	Y1	Z1	X2	Y2	Z2	

1	0.000	199.14452	193.76945	192.97836	202.49648	192.67882	57.86092	
2	0.010	199.10703	193.74611	192.97179	202.50269	192.68187	57.86151	
3	0.020	199.13492	193.76204	192.97452	202.50960	192.68721	57.85567	
4	0.030	199.12408	193.76671	192.98978	202.49908	192.68138	57.85676	
5	0.040	199.10995	193.74651	192.97015	202.49733	192.67967	57.85954	
6	0.050	199.12534	193.75079	192.96796	202.48950	192.67192	57.87208	
7	0.060	199.11581	193.74728	192.96687	202.49387	192.67624	57.86509	
8	0.070	199.11359	193.74536	192.97182	202.49648	192.67882	57.86092	
9	0.080	199.11818	193.74913	192.96782	202.48604	192.68309	57.87421	
10	0.090	199.14935	193.77319	192.98027	202.48421	192.69550	57.86991	
11	0.100	199.10995	193.74651	192.97015	202.49530	192.68735	57.86054	
12	0.110	199.11310	193.75453	192.97984	202.49989	192.68332	57.91354	
13	0.120	199.10950	193.75699	192.99246	202.49733	192.67967	57.85954	
14	0.130	199.13963	193.72690	192.94933	202.49303	192.67538	57.86647	
15	0.140	199.14680	193.74020	192.95764	202.50746	192.68741	57.89738	
16	0.150	199.12059	193.75099	192.96877	202.49477	192.67711	57.86368	
17	0.160	199.15829	193.77042	192.97862	202.47798	192.70468	57.88015	
18	0.170	199.11581	193.74728	192.96687	202.49214	192.67451	57.86787	
19	0.180	199.13138	193.72816	192.95438	202.49495	192.68178	57.85839	
20	0.190	199.14862	193.73181	192.95303	202.47714	192.71272	57.89901	
21	0.200	199.13008	193.74287	192.96178	202.50385	192.67532	57.88583	
22	0.210	199.14444	193.76170	192.97293	202.47772	192.69798	57.87038	
23	0.220	199.16364	193.76491	192.97249	202.48373	192.70546	57.87207	
24	0.230	199.13005	193.73509	192.95638	202.49409	192.68094	57.85975	
25	0.240	199.11818	193.74913	192.96782	202.48163	192.69342	57.87785	
26	0.250	199.12529	193.73917	192.95988	202.51614	192.68141	57.88689	
27	0.260	199.11540	193.73312	192.96457	202.49994	192.68224	57.85539	
28	0.270	199.11252	193.73660	192.96890	202.48938	192.67305	57.88852	
29	0.280	199.17564	193.76639	192.97188	202.50331	192.68564	57.84992	
30	0.290	199.12529	193.73917	192.95988	202.49445	192.68651	57.86191	
31	0.300	199.14198	193.74431	192.96114	202.48715	192.68912	57.87128	
32	0.310	199.15640	193.72810	192.94785	202.49040	192.67279	57.87067	
33	0.320	199.13066	193.72701	192.96268	202.50417	192.68648	57.84855	
34	0.330	199.15880	193.76117	192.97057	202.48776	192.67018	57.87489	
35	0.340	199.11781	193.73106	192.96281	202.48122	192.68588	57.86065	
36	0.350	199.13246	193.73305	192.95462	202.50435	192.68321	57.88028	
37	0.360	199.14680	193.74020	192.95764	202.50284	192.67892	57.87179	
38	0.370	199.10997	193.72052	192.96548	202.49820	192.68054	57.85815	
39	0.380	199.15579	193.75687	192.96951	202.50500	192.68732	57.84721	
40	0.390	199.14447	193.72276	192.94580	202.49019	192.70193	57.86410	
41	0.400	199.17558	193.73894	192.95274	202.48332	192.67917	57.86709	
42	0.410	199.16600	193.76286	192.97073	202.50111	192.69994	57.88474	
43	0.420	199.13658	193.71214	192.94849	202.48801	192.68997	57.86991	
44	0.430	199.16685	193.76129	192.97406	202.50716	192.68373	57.89387	
45	0.440	199.12819	193.73686	192.96989	202.47598	192.68080	57.86892	
46	0.450	199.11781	193.74274	192.97092	202.49458	192.69063	57.85298	
47	0.460	199.13620	193.78532	193.00850	202.48994	192.71510	57.92928	
48	0.470	199.16551	193.77211	192.97879	202.43878	192.70514	57.89482	
49	0.480	199.13028	193.73885	192.96500	202.47755	192.68944	57.86211	
50	0.490	199.14857	193.75128	192.96663	202.45538	192.69313	57.88263	
51	0.500	199.17220	193.76355	192.97340	202.45528	192.69409	57.89022	
52	0.510	199.11035	193.74770	192.99030	202.48154	192.69197	57.86656	
53	0.520	199.13426	193.75185	192.96902	202.46820	192.68622	57.86676	
54	0.530	199.14203	193.72484	192.94756	202.45236	192.70053	57.88885	
55	0.540	199.13373	193.77415	192.99364	202.47424	192.69559	57.88346	
56	0.550	199.13214	193.74991	192.97397	202.47658	192.69000	57.85836	
57	0.560	199.11865	193.74895	192.97961	202.46901	192.70250	57.86969	
58	0.570	199.15083	193.75063	192.97336	202.47379	192.69446	57.87472	
